<?xml version="1.0" encoding="utf-8" ?><svg xmlns="http://www.w3.org/2000/svg" xmlns:xlink="http://www.w3.org/1999/xlink" width="1024" height="434" viewBox="0 0 1024 434"><path fill="#FEFDFD" d="M241.319 142.057C248.026 142.571 250.154 144.302 253.208 149.989L259.716 148.229C265.643 150.261 265.74 150.182 270.112 154.98C271.117 160.475 270.48 167.743 270.712 173.192C271.281 186.55 269.764 205.593 271.608 218.426C278.207 210.963 284.405 203.042 295.198 202.926C300.557 202.868 304.958 204.279 307.905 209.144C308.531 210.177 308.508 211.833 307.751 212.828C303.629 217.414 298.617 220.949 294.534 225.664C286.872 234.513 282.755 245.184 276.473 254.879C273.533 259.418 267.268 262.701 265.399 268.04C263.608 273.158 262.943 278.427 265.169 283.509C267.737 284.808 270.93 285.881 270.242 289.281C269.362 290.081 268.546 290.354 267.389 290.523C261.375 291.404 216.408 291.599 213.651 289.434C213.433 289.263 213.49 289.346 213.475 289.075C213.27 285.405 220.075 281.942 219.317 274.978C218.756 269.828 215.58 266.766 211.844 263.668C203.842 257.035 200.769 248.903 199.841 238.664C199.254 232.183 197.994 208.279 201.559 204.158C204.422 200.849 209.428 200.494 213.495 200.21C214.633 199.163 213.634 194.073 217.01 191.54C221.834 187.921 225.81 188.762 230.979 189.838C230.783 181.256 229.237 154.015 232.64 147.681C234.476 144.264 237.85 143.116 241.319 142.057ZM254.008 200.152C256.953 200.999 258.626 201.074 259.823 203.9C257.044 206.27 243.808 205.425 237.789 206.287C238.759 209.181 239.447 213.342 239.752 216.404C237.867 220.386 236.373 223.145 231.901 224.762C230.903 225.112 229.892 225.424 228.87 225.699L224.127 224.477C219.687 232.514 213.917 234.222 205.777 229.421C205.48 229.245 205.187 229.062 204.899 228.871C207.331 254.321 209.935 264.234 236.502 266.526C237.314 266.596 237.447 268.365 237.517 269.014C235.275 272.544 228.175 270.755 224.404 270.29C225.084 276.119 225.468 279.36 223.639 285.004C232.492 285.046 251.535 285.701 259.42 284.977C257.481 278.095 257.11 273.081 259.441 266.109C237.822 263.927 238.751 252.42 239.042 234.605C236.415 237.942 235.244 239.669 231.259 241.458C229.744 239.891 229.824 240.397 229.325 238.493C230.402 233.881 237.688 228.848 241.382 225.491C244.77 227.836 256.06 236.229 253.588 240.717C250.188 241.184 246.711 237.048 244.634 234.725C245.185 241.339 243.353 254.121 249.082 257.942C267.874 270.472 277.131 240.26 284.74 229.403C290.419 221.3 296.115 216.519 302.437 210.285C285.262 203.143 283.52 218.222 270.783 224.468C267.177 226.237 260.208 232.136 256.505 231.12C255.198 229.89 255.418 230.448 255.349 229.029C257.444 224.883 262.304 222.209 266.444 220.244C262.681 207.848 266.054 185.172 264.822 171.901C264.168 164.859 267.753 154.849 258.35 153.896C256.918 154.73 254.352 155.997 254.258 157.521C253.453 170.552 253.878 187.277 254.008 200.152ZM209.634 205.466C201.859 208.819 206.371 216.971 208.468 223.067C209.299 225.482 210.942 227.065 213.681 227.084C215.186 226.571 216.914 226.087 217.515 224.473C219.349 219.549 216.769 207.996 211.988 205.597L209.634 205.466ZM222.88 193.978C221.498 194.912 219.917 196.142 219.833 198.033C219.546 204.497 221 212.628 224.419 218.223C225.699 220.317 228.105 220.12 230.202 220.143C231.537 219.164 233.137 217.777 233.203 215.89C233.425 209.525 231.726 201.319 228.503 195.774C227.286 193.682 224.9 193.904 222.88 193.978ZM241.804 147.425C240.404 147.92 237.761 149.072 237.561 150.512C235.648 164.238 237.22 187.431 236.886 200.888L242.382 200.152C244.119 200.126 246.433 200.292 247.892 199.489C249.283 195.961 247.115 159.269 247.627 152.703C247.854 149.8 245.017 147.453 241.804 147.425Z"/><path fill="#FEFDFD" d="M795.427 191.376C800.263 191.514 808.125 189.851 810.038 194.761C818.812 217.282 826.408 240.537 835.479 262.93L823.548 263.067C821.175 257.821 818.664 250.059 816.69 244.464L810.625 244.521L787.683 244.463C786.265 249.773 783.338 257.541 781.492 262.923C777.539 263.04 773.317 262.993 769.34 263.022C777.767 240.109 786.513 213.677 795.427 191.376ZM791.408 235.013L802.777 235.085C806.204 235.086 810.382 234.962 813.701 235.484C811.892 231.303 803.357 205.012 802.27 203.888C798.94 212.845 794.005 226.001 791.408 235.013Z"/><path fill="#FEFDFD" d="M491.095 190.204C505.569 189.446 514.607 196.837 518.24 210.436C514.736 210.616 511.23 210.768 507.724 210.892C504.371 204.118 501.318 200.313 493.21 199.733C487.858 198.916 476.581 203.22 477.862 210.252C480.381 224.075 503.981 220.389 513.097 230.324C521.415 239.389 520.074 248.636 513.208 257.022C508.401 262.893 497.394 264.428 490.592 264.522C475.079 262.945 467.732 258.303 464.181 242.819C467.811 242.519 471.925 242.557 475.602 242.508C476.773 245.958 477.483 248.592 480.641 251.277C488.294 257.785 507.989 255.209 507.038 242.793C506.164 234.141 492.235 231.458 485.037 229.844C469.861 226.443 460.234 213.174 470.717 199.064C475.42 192.734 483.263 190.987 491.095 190.204Z"/><path fill="#FEFDFD" d="M661.295 209.095C671.754 208.228 685.077 211.277 686.649 223.078C688.268 235.231 687.483 250.613 687.413 262.981L677.142 263.051C676.984 260.904 677.02 258.342 676.994 256.159C675.385 257.981 673.859 259.765 671.79 261.081C666.717 264.254 660.595 265.292 654.76 263.969C649.393 262.779 646.136 260.215 643.28 255.722C641.843 252.88 641 248.292 641.42 245.135C643.576 228.949 669.626 233.497 674.983 229.006C679.453 221.438 669.67 216.017 662.936 217.898C656.835 219.603 656.167 220.212 652.734 225.09C649.621 224.276 645.962 223.78 642.747 223.265C646.643 213.525 651.531 211.019 661.295 209.095ZM655.493 254.317C659.244 256.237 663.205 256.884 667.312 255.53C670.574 254.475 673.258 252.124 674.731 249.028C676.208 245.94 676.531 240.887 675.958 237.668C673.55 238.398 669.559 239.186 667.016 239.305C658.91 239.683 645.338 244.831 655.493 254.317Z"/><path fill="#FEFDFD" d="M548.25 209.102C549.251 209.026 550.255 208.979 551.259 208.962C570.68 208.72 575.876 223.218 576.033 239.975C566.862 239.567 546.156 239.149 537.109 240.003C537.908 245.002 538.854 249.223 543.143 252.645C546.186 255.033 550.054 256.111 553.893 255.64C559.633 254.991 562.254 252.053 565.564 247.98C568.307 247.765 572.927 249.193 575.536 249.974C574.663 251.59 573.722 253.167 572.715 254.702C565.329 265.832 547.921 267.218 537.332 260.204C524.659 251.771 523.197 230.997 531.409 219.064C535.739 212.772 541.01 210.445 548.25 209.102ZM537.046 231.5L550.875 231.506L565.764 231.465C563.814 225.58 560.109 216.969 552.282 217.722C542.389 218.514 539.658 222.325 537.046 231.5Z"/><path fill="#FEFDFD" d="M352.255 191.196C354.529 191.7 364.795 191.559 367.613 191.551L397.606 191.432L397.533 200.901C386.255 201.048 374.822 200.975 363.532 200.993L363.556 222.053L394.998 222.021L395.007 231.562C384.518 231.456 374.029 231.514 363.542 231.737L363.489 253.525C374.994 253.617 386.499 253.59 398.003 253.442L398.051 262.994L352.141 262.996C351.529 249.263 352.223 233.204 351.977 219.273C351.882 213.904 351.647 195.868 352.255 191.196Z"/><path fill="#FEFDFD" d="M610 209.105C610.915 209.028 611.833 208.983 612.751 208.97C628.843 208.854 632.342 221.172 632.127 234.405C631.974 243.844 632.061 253.474 631.93 262.945L621.099 262.989C620.568 250.022 627.275 207.455 601.857 220.338C598.356 223.669 596.868 227.2 596.82 232.076C596.719 242.367 596.917 252.696 597.012 262.992L585.775 263.028C585.621 260.87 585.514 258.43 585.529 256.26C585.635 240.769 585.11 225.081 585.646 209.61C589.073 209.61 592.568 209.523 596.001 209.472C596.026 212.373 596.075 215.275 596.148 218.175C600.22 212.119 602.981 210.53 610 209.105Z"/><path fill="#FEFDFD" d="M432.685 209.083C433.563 209.038 434.443 209.009 435.322 208.994C444.628 208.867 452.959 214.47 454.157 223.666C455.743 235.832 455.013 250.663 455.02 262.98L444.169 263.025C443.262 251.947 444.828 240.147 443.405 229.03C442.065 218.565 433.489 215.015 424.843 220.362C416.968 226.454 419.335 253.306 420.001 263.007L408.557 263.008C408.156 245.955 408.172 226.618 408.463 209.555C411.997 209.648 415.469 209.572 419 209.511L418.98 218.294C419.145 218.038 419.311 217.783 419.48 217.529C423.161 212.013 426.509 210.327 432.685 209.083Z"/><path fill="#FEFDFD" d="M715.35 209.131C727.465 208.35 735.269 210.849 740.248 222.738C738.087 223.269 730.987 225.13 730.633 224.378C728.543 219.367 721.5 216.659 716.535 217.695C701.706 220.789 710.256 231.769 721.243 231.796C724.756 232.82 731.784 233.741 734.447 236.169C749.973 250.326 736.198 262.525 721.113 264.442C708.8 265.043 700.539 261.237 696.128 249.357C704.856 247.354 704.329 246.647 711.02 253.389C716.078 257.744 730.955 256.555 729.472 247.522C728.522 241.733 718.64 241.023 713.982 239.829C709.934 238.792 707.292 238.103 703.713 235.833C697.233 231.722 696.379 223.172 700.44 217.077C704.211 211.512 708.955 210.228 715.35 209.131Z"/><path fill="#FEFDFD" d="M843.144 191.352C846.321 191.615 851.464 191.461 854.784 191.463L854.579 262.441C853.187 263.611 845.847 263.035 843.604 262.944C842.683 258.74 842.946 242.542 842.991 237.043C843.112 221.978 842.75 206.353 843.144 191.352Z"/><path fill="#FEFDFD" d="M225.008 167.507C226.192 168.364 226.09 169.818 225.981 171.099C224.479 174.476 212.192 178.714 208.71 181.514C198.293 189.893 192.229 200.033 187.559 212.326C187.339 212.906 185.897 213.751 185.279 214.078C181.34 209.922 184.55 204.782 186.452 200.424C193.961 183.206 208.052 173.738 225.008 167.507Z"/><path fill="#FEFDFD" d="M620.581 189.067C622.7 188.961 624.482 188.783 626.586 189.18L627.45 190.719C627.95 195.777 622.067 201.176 617.521 202.599C609.963 202.494 605.347 195.251 600.642 197.523C599.096 198.793 598.712 200.745 598.1 202.674C595.67 202.597 593.16 202.695 590.724 202.752C591.746 195.85 592.912 191.077 600.415 189.007C607.99 188.902 611.949 195.714 617.386 193.978C619.115 192.93 619.739 190.943 620.581 189.067Z"/><path fill="#FEFDFD" d="M298.722 237.609C300.217 237.911 300.386 237.988 301.557 238.965C303.603 242.875 299.039 249.331 297.074 252.657C290.433 263.892 283.215 269.301 272.24 275.638C271.24 276.19 270.644 276.255 269.551 276.474L268.753 275.542C268.684 270.125 278.53 265.78 281.982 262.928C290.266 256.085 293.436 246.35 298.722 237.609Z"/><path fill="#FEFDFD" d="M185.688 237.591C189.732 238.314 190.697 244.544 192.468 247.691C195.073 252.321 198.259 256.211 201.846 260.108C205.426 263.997 210.269 266.913 213.435 271.052C214.147 272 213.87 273.845 213.321 274.91C201.471 269.449 188.085 255.452 184.463 242.428C183.822 240.122 184.502 239.428 185.688 237.591Z"/><path fill="#FEFDFD" d="M174.735 210.864C181.207 212.855 176.289 217.066 175.468 221.331C174.369 227.05 176.8 232.535 178.055 238.007C178.355 239.312 177.129 240.345 176.369 241.256C166.944 238.242 168.246 217.479 174.735 210.864Z"/><path fill="#FEFDFD" d="M276.37 174.932C282.163 178.214 297.67 191.388 297.315 198.578C295.326 198.33 293.875 197.898 291.962 197.373C287.034 190.39 283.351 187.636 277.664 181.527C275.773 179.495 276.057 177.513 276.37 174.932Z"/><path fill="#FEFDFD" d="M313.285 212.78C320.197 217.754 317.307 235.102 311.824 241.361C310.196 240.631 309.735 240.496 308.714 239.057C308.205 236.632 311.241 232.068 311.53 229.648C312.465 221.814 309.234 220.067 313.285 212.78Z"/><path fill="#FEFDFD" d="M181.966 217.756C183.174 217.926 183.698 218.248 184.765 218.772C186.969 221.541 186.59 231.578 184.338 234.638C178.022 232.19 179.141 222.3 181.966 217.756Z"/><path fill="#FEFDFD" d="M305.376 221.784C309.044 223.473 306.921 232.627 302.92 235.469C297.725 231.583 301.261 225.059 305.376 221.784Z"/></svg>